<svg width="16" height="16" viewBox="0 0 16 16" fill="none" xmlns="http://www.w3.org/2000/svg">
<path d="M2.99996 11C1.99996 11.84 1.66663 14.3333 1.66663 14.3333C1.66663 14.3333 4.15996 14 4.99996 13C5.47329 12.44 5.46663 11.58 4.93996 11.06C4.68083 10.8126 4.33949 10.6697 3.98144 10.6587C3.6234 10.6476 3.27388 10.7691 2.99996 11Z" stroke="#7C3AED" stroke-width="1.33333" stroke-linecap="round" stroke-linejoin="round"/>
<path d="M8 10L6 8.00002C6.35476 7.07964 6.80147 6.1974 7.33333 5.36669C8.11012 4.12468 9.19175 3.10206 10.4753 2.39608C11.7589 1.69011 13.2018 1.32427 14.6667 1.33336C14.6667 3.14669 14.1467 6.33336 10.6667 8.66669C9.82459 9.19917 8.93123 9.64585 8 10Z" stroke="#7C3AED" stroke-width="1.33333" stroke-linecap="round" stroke-linejoin="round"/>
<path d="M5.99996 7.99997H2.66663C2.66663 7.99997 3.03329 5.97997 3.99996 5.33331C5.07996 4.61331 7.33329 5.33331 7.33329 5.33331" stroke="#7C3AED" stroke-width="1.33333" stroke-linecap="round" stroke-linejoin="round"/>
<path d="M8 10V13.3334C8 13.3334 10.02 12.9667 10.6667 12C11.3867 10.92 10.6667 8.66669 10.6667 8.66669" stroke="#7C3AED" stroke-width="1.33333" stroke-linecap="round" stroke-linejoin="round"/>
</svg>
